<?xml version="1.0" standalone="no"?>
<!DOCTYPE svg PUBLIC "-//W3C//DTD SVG 20010904//EN"
 "http://www.w3.org/TR/2001/REC-SVG-20010904/DTD/svg10.dtd">
<svg version="1.0" xmlns="http://www.w3.org/2000/svg"
 width="512.000000pt" height="512.000000pt" viewBox="0 0 512.000000 512.000000"
 preserveAspectRatio="xMidYMid meet">

<g transform="translate(0.000000,512.000000) scale(0.100000,-0.100000)"
fill="#000000" stroke="none">
<path d="M2465 5113 c-650 -26 -1252 -289 -1711 -747 -413 -413 -666 -939
-734 -1526 -15 -122 -15 -438 0 -560 39 -339 133 -639 294 -935 361 -668 1005
-1144 1743 -1289 189 -37 297 -47 503 -47 447 0 828 95 1215 305 657 355 1134
992 1284 1712 79 381 72 777 -20 1148 -246 994 -1076 1754 -2084 1910 -142 22
-356 35 -490 29z m335 -955 c25 -6 77 -27 115 -46 64 -32 124 -89 727 -691
745 -745 712 -706 713 -856 0 -162 37 -117 -708 -861 -717 -715 -695 -696
-852 -729 -244 -51 -484 81 -575 316 -27 70 -37 216 -20 290 27 112 66 175
188 301 l115 118 -674 0 c-741 0 -741 0 -862 61 -87 44 -204 164 -244 249 -42
90 -57 160 -56 260 3 257 189 482 442 536 53 11 200 14 730 14 l664 0 -125
128 c-168 171 -210 255 -211 422 -2 335 301 568 633 488z"/>
</g>
</svg>
