<?xml version="1.0" standalone="no"?>
<!DOCTYPE svg PUBLIC "-//W3C//DTD SVG 20010904//EN"
 "http://www.w3.org/TR/2001/REC-SVG-20010904/DTD/svg10.dtd">
<svg version="1.0" xmlns="http://www.w3.org/2000/svg"
 width="243.000000pt" height="207.000000pt" viewBox="0 0 243.000000 207.000000"
 preserveAspectRatio="xMidYMid meet">
<metadata>
Created by potrace 1.16, written by Peter Selinger 2001-2019
</metadata>
<g transform="translate(0.000000,207.000000) scale(0.100000,-0.100000)"
fill="#000000" stroke="none">
<path d="M1187 2064 c-3 -3 -52 -5 -109 -5 -62 1 -125 -5 -158 -14 -30 -8 -87
-15 -126 -15 -93 0 -184 -28 -258 -80 -31 -22 -68 -40 -82 -40 -45 0 -102 -39
-229 -157 -118 -111 -128 -124 -171 -213 -42 -86 -46 -100 -41 -150 2 -30 0
-66 -5 -80 -14 -38 1 -96 42 -158 20 -31 43 -75 50 -96 26 -80 142 -163 264
-188 46 -10 56 -17 80 -53 14 -23 26 -55 26 -71 0 -40 21 -67 88 -113 57 -39
58 -39 144 -35 75 3 92 0 133 -20 37 -19 43 -20 30 -6 -9 10 -43 27 -75 39
-101 37 -122 94 -73 195 18 39 24 41 115 50 l56 6 21 -40 c12 -22 21 -50 21
-61 0 -12 10 -23 26 -29 31 -12 34 -12 34 -1 0 5 -10 11 -22 13 -14 2 -24 11
-26 23 -2 11 -10 37 -19 58 -16 36 -15 39 3 57 17 17 27 18 89 10 67 -8 74 -7
150 25 75 31 87 33 183 31 l104 -2 14 -32 c7 -18 18 -32 23 -32 6 0 2 13 -7
29 -23 41 -9 49 43 23 30 -14 64 -22 99 -22 46 0 54 -3 66 -25 18 -34 26 -23
10 15 -16 39 -4 54 105 125 92 59 134 103 161 168 20 50 28 55 59 34 11 -8 34
-22 50 -33 28 -17 29 -17 16 -1 -8 10 -32 27 -53 38 -21 11 -38 22 -38 25 0 2
9 22 20 44 27 53 25 73 -12 139 -37 67 -37 66 -43 59 -3 -3 10 -33 30 -66 19
-33 35 -65 35 -70 0 -18 -110 -226 -132 -249 -12 -13 -56 -46 -98 -72 -41 -27
-91 -65 -109 -85 -29 -30 -42 -36 -75 -36 -23 1 -60 11 -84 24 -39 20 -42 24
-27 36 9 7 21 23 27 34 7 13 -1 8 -19 -11 -18 -19 -44 -34 -67 -39 -41 -7
-203 0 -213 10 -3 3 10 29 29 58 65 98 70 108 64 108 -10 0 -106 -151 -106
-166 0 -23 -114 -74 -162 -73 -69 2 -91 12 -116 54 -16 27 -21 32 -16 15 3
-14 10 -31 14 -39 16 -30 -72 -71 -153 -71 -51 0 -91 22 -123 68 -17 24 -24
29 -19 15 7 -26 0 -28 -35 -8 -14 8 -29 14 -35 15 -5 0 27 -22 73 -48 80 -47
82 -49 59 -61 -23 -12 -92 -119 -83 -128 3 -3 19 20 36 51 18 31 36 59 41 62
12 7 12 4 -6 -46 -24 -67 -20 -107 14 -140 l28 -29 -29 -6 c-42 -10 -142 30
-189 75 -30 29 -39 45 -39 70 0 19 -10 49 -24 69 -23 33 -24 41 -15 96 6 33
17 67 26 77 26 29 189 137 241 160 40 18 67 22 178 22 127 1 132 2 172 30 22
15 47 26 54 24 8 -3 4 -9 -12 -18 -14 -7 -37 -24 -52 -37 -16 -15 -31 -22 -39
-17 -9 5 -10 2 -4 -12 4 -10 11 -39 16 -64 l7 -45 -1 54 c-1 53 0 55 42 88 46
35 65 41 207 67 135 24 176 21 249 -16 64 -32 95 -33 95 -1 -1 17 -1 17 -14 0
-13 -17 -16 -17 -44 -3 -17 9 -33 19 -35 23 -3 5 37 53 88 108 52 55 92 102
89 104 -2 3 -48 -41 -102 -97 l-97 -102 -51 11 c-41 9 -67 8 -129 -5 -43 -9
-80 -15 -82 -12 -2 2 8 11 21 20 30 19 51 57 60 109 5 27 4 37 -3 32 -6 -3
-11 -15 -11 -27 0 -73 -88 -148 -173 -148 -48 0 -49 1 -44 27 5 27 1 40 -33
103 -11 19 -19 29 -20 22 0 -8 -5 -10 -12 -6 -7 4 -2 -7 10 -24 13 -17 27 -34
32 -37 6 -4 10 -24 10 -45 0 -32 -6 -43 -32 -63 -43 -32 -79 -38 -192 -30
l-94 6 -12 61 c-6 34 -15 96 -19 138 -8 75 -38 168 -54 168 -4 0 0 -17 9 -37
16 -37 20 -57 43 -223 6 -41 14 -85 17 -97 5 -16 2 -23 -8 -23 -8 0 -36 -11
-63 -25 -59 -32 -73 -28 -150 45 -66 62 -195 155 -195 140 0 -5 28 -28 62 -51
35 -23 93 -71 130 -106 36 -34 72 -63 79 -63 6 0 -23 -25 -67 -56 l-78 -57
-69 22 c-38 13 -83 35 -100 51 l-32 28 15 49 c8 26 14 64 14 84 0 42 -23 119
-36 119 -11 0 -11 -1 8 -46 12 -28 14 -53 9 -94 -4 -30 -8 -74 -8 -97 -1 -28
-7 -43 -15 -43 -27 0 -71 31 -101 72 -25 34 -31 52 -31 93 0 44 5 57 35 92 35
42 43 67 25 78 -6 3 -10 -4 -10 -17 0 -23 -16 -48 -31 -48 -4 0 -21 12 -38 26
-42 35 -42 83 -2 146 33 51 57 68 114 79 38 6 39 6 34 -20 -2 -14 -8 -35 -12
-46 -5 -14 -5 -17 2 -10 6 6 16 28 23 50 30 95 80 170 143 216 43 31 80 36
122 17 22 -10 28 -9 43 7 14 15 14 17 1 7 -9 -7 -24 -9 -33 -6 -15 6 -15 9 6
32 43 46 80 55 237 53 100 -1 154 -6 179 -16 l35 -15 -45 -53 c-25 -28 -52
-53 -59 -55 -8 -1 -39 12 -69 31 -30 18 -68 41 -85 51 l-30 18 30 -26 c17 -14
56 -40 88 -57 50 -26 58 -34 53 -53 -3 -11 -6 -49 -6 -84 l0 -63 -36 28 c-21
15 -60 32 -93 38 l-56 11 -6 60 -6 59 1 -66 2 -67 -34 -12 c-19 -7 -43 -28
-60 -52 l-26 -40 -8 27 c-4 16 -23 44 -42 64 -19 20 -42 52 -50 71 -15 34 -15
35 -16 7 0 -18 13 -41 39 -70 51 -56 64 -82 56 -117 -11 -49 -48 -70 -121 -70
-41 0 -64 -4 -64 -11 0 -16 130 -5 160 13 12 7 37 39 56 70 51 83 84 108 145
108 56 0 121 -28 143 -63 10 -15 16 -56 18 -129 2 -60 6 -108 9 -108 11 0 18
71 10 94 -12 30 -13 270 -2 298 10 24 109 129 152 161 23 17 16 18 -23 2 -14
-6 -18 -2 -18 16 1 33 28 65 75 88 22 11 33 20 25 21 -8 0 -30 -9 -49 -21 -44
-27 -50 -18 -11 15 61 51 154 27 192 -49 11 -22 26 -47 34 -55 11 -13 10 -19
-6 -40 -13 -17 -20 -20 -20 -10 -1 18 -109 102 -122 94 -5 -3 11 -19 35 -35
24 -16 51 -37 61 -48 16 -18 15 -21 -33 -76 -28 -32 -51 -62 -51 -66 0 -4 -5
-20 -10 -35 l-11 -27 -31 42 c-17 23 -33 40 -35 37 -3 -3 7 -21 22 -41 15 -19
26 -38 23 -40 -2 -3 -21 5 -42 16 -21 11 -35 15 -31 9 3 -5 24 -19 45 -30 31
-16 41 -28 50 -61 14 -50 7 -61 -14 -22 -8 15 -15 24 -16 19 0 -14 54 -96 64
-96 4 0 5 8 1 18 -14 31 -17 149 -6 185 11 32 69 94 117 124 19 12 19 12 0 6
-17 -6 -16 -1 7 29 22 29 32 34 54 30 22 -4 24 -7 10 -16 -8 -6 -24 -17 -34
-24 -10 -7 3 -1 30 13 l47 26 40 -22 c22 -13 40 -28 40 -34 0 -16 -71 -116
-92 -129 -13 -8 -25 -6 -48 8 -17 10 -34 15 -37 12 -3 -3 10 -13 30 -22 49
-23 61 -53 47 -120 -8 -37 -8 -59 -1 -71 9 -15 10 -13 10 12 -2 130 5 158 56
232 58 84 82 96 205 97 68 1 82 -3 150 -36 41 -21 93 -42 115 -48 81 -19 157
-85 277 -240 15 -19 30 -31 34 -28 10 10 -141 184 -200 230 -28 22 -57 53 -64
69 -15 35 -77 82 -140 105 -26 9 -80 30 -121 46 -40 16 -82 26 -92 23 -34 -11
-67 -45 -74 -76 -9 -40 -31 -47 -75 -22 -19 12 -57 24 -83 28 l-48 7 23 27
c21 24 20 24 -9 -3 l-31 -28 -12 22 c-10 19 -8 26 12 47 42 45 69 53 160 47
99 -6 323 -70 411 -116 58 -32 163 -133 199 -194 10 -17 36 -44 58 -59 65 -45
120 -131 120 -188 0 -14 18 -42 45 -70 25 -26 45 -53 45 -60 0 -6 16 -43 35
-80 19 -38 35 -71 35 -74 0 -31 -218 248 -248 317 -35 80 -109 130 -194 130
-39 0 -45 3 -54 28 -10 27 -160 159 -170 149 -2 -2 12 -17 33 -33 68 -51 133
-116 133 -133 0 -9 -9 -32 -20 -51 l-21 -35 30 34 c28 32 32 33 85 29 116 -10
168 -75 206 -263 11 -55 25 -115 31 -133 16 -48 -17 -109 -86 -161 -33 -25
-74 -70 -101 -112 -28 -43 -69 -87 -106 -115 -32 -25 -57 -49 -54 -52 14 -13
142 114 182 180 19 31 50 66 68 78 51 31 104 94 111 132 4 18 1 47 -5 63 -13
33 -40 168 -35 173 4 5 130 -155 146 -185 10 -19 9 -37 -5 -99 -10 -41 -16
-78 -13 -81 3 -2 14 32 24 76 10 45 21 81 25 81 20 0 29 -49 26 -140 -1 -54 2
-103 6 -107 5 -4 6 2 3 15 -8 36 3 26 23 -21 17 -38 18 -54 10 -123 -5 -43
-15 -96 -22 -117 l-14 -38 -21 29 c-21 29 -21 29 -2 58 27 40 51 84 45 84 -3
0 -22 -26 -43 -57 l-37 -58 -8 57 c-4 31 -14 72 -22 91 l-14 35 42 9 c33 8 25
9 -46 5 l-86 -5 -22 51 c-12 28 -29 57 -38 64 -8 7 -2 -9 14 -37 28 -48 29
-56 29 -167 0 -65 3 -110 7 -100 4 9 7 54 7 100 l1 82 39 0 c38 0 40 -2 55
-47 28 -88 30 -120 9 -160 -11 -21 -23 -65 -26 -97 -3 -32 -11 -64 -16 -69 -6
-6 -38 -13 -71 -15 -51 -4 -59 -2 -54 11 8 23 -9 50 -71 108 -30 29 -55 55
-55 58 0 3 28 21 61 39 33 19 59 36 56 38 -3 3 -27 -8 -53 -25 -106 -64 -162
-71 -369 -41 -38 5 -120 9 -182 10 -62 0 -123 5 -136 11 -20 9 -33 6 -82 -20
-63 -34 -102 -38 -184 -20 -43 9 -53 8 -77 -8 -15 -10 -51 -21 -78 -24 l-51
-6 47 -2 c31 -1 58 6 82 20 30 17 40 19 73 10 70 -20 132 -14 189 19 43 24 58
28 81 21 15 -5 98 -12 183 -15 167 -6 246 -18 268 -40 8 -8 18 -29 22 -47 l8
-34 1 32 c1 17 -3 35 -9 38 -21 13 -8 25 28 25 20 0 52 4 70 9 32 10 36 8 103
-60 38 -38 69 -73 69 -78 0 -5 -7 -14 -15 -21 -12 -10 -49 -9 -188 4 -254 24
-283 26 -513 32 -177 5 -219 3 -270 -11 -80 -22 -279 -31 -341 -16 -26 7 -70
24 -97 37 -27 14 -51 22 -54 19 -3 -2 26 -19 64 -37 68 -32 72 -33 209 -33 77
0 157 4 177 8 35 7 38 6 54 -25 9 -18 42 -60 72 -93 39 -42 80 -106 137 -215
68 -130 86 -158 116 -174 39 -21 83 -17 93 10 3 8 -5 48 -19 88 -14 40 -25 75
-25 79 0 4 21 4 48 2 53 -6 47 0 -11 10 -24 4 -35 10 -31 17 4 6 3 8 -4 4 -13
-8 -63 14 -57 24 3 4 -3 7 -12 6 -10 0 -18 4 -18 11 0 6 -4 15 -9 20 -5 5 -6
3 -2 -4 11 -20 -4 -15 -40 12 -32 25 -58 79 -53 112 2 10 -2 28 -9 41 -11 19
-10 22 5 23 18 1 17 1 -27 15 -13 5 -13 6 0 14 13 8 13 10 -1 10 -9 0 -19 9
-22 20 -5 20 -2 20 56 14 34 -4 63 -8 65 -9 2 -2 20 1 40 6 40 10 154 1 147
-11 -7 -12 71 -19 150 -13 40 3 82 2 92 -2 10 -4 49 -7 87 -6 65 2 71 0 105
-31 20 -19 26 -22 13 -7 l-22 25 45 1 c35 1 46 -3 50 -18 8 -24 -3 -79 -15
-79 -5 0 -14 -17 -20 -37 -6 -21 -16 -45 -23 -53 -21 -26 -74 -60 -82 -52 -5
4 -5 1 -1 -5 7 -12 -6 -17 -41 -16 -7 1 -11 -3 -8 -7 6 -10 -88 -30 -190 -40
l-80 -8 95 3 c114 3 210 31 272 78 51 39 106 136 107 189 1 36 1 36 54 43 28
4 68 14 87 22 85 35 151 140 170 274 12 77 6 249 -11 329 -16 73 -114 266
-149 291 -20 16 -30 31 -30 50 0 50 -31 104 -101 174 -38 39 -97 103 -131 144
-34 41 -87 90 -119 111 -72 46 -287 117 -413 136 -50 8 -116 21 -146 29 -55
15 -122 20 -133 9z m-211 -80 c20 -24 21 -30 8 -58 -7 -18 -19 -29 -26 -27
-11 4 -162 17 -237 20 -20 1 -22 5 -18 29 l6 27 -12 -27 c-8 -22 -18 -28 -41
-28 -41 -1 -105 -31 -135 -64 -17 -18 -35 -26 -58 -26 -19 0 -46 -6 -62 -14
-39 -20 -107 -98 -133 -150 -20 -42 -25 -46 -76 -57 -37 -7 -63 -20 -79 -38
-40 -42 -65 -99 -62 -140 3 -38 -5 -61 -22 -61 -22 0 -6 75 36 163 37 79 55
103 107 149 35 30 75 59 89 64 27 9 167 134 151 134 -5 0 -39 -28 -76 -61 -37
-34 -69 -59 -72 -57 -7 8 103 106 138 124 17 9 27 11 24 5 -9 -14 -7 -14 35 1
18 6 53 26 76 44 67 51 144 76 258 83 118 7 152 1 181 -35z m642 -38 c15 -7
66 -27 114 -44 102 -35 178 -84 178 -113 0 -18 -4 -20 -32 -14 -18 4 -70 25
-116 47 l-83 41 -94 -6 -93 -5 12 36 c8 23 24 42 47 54 40 22 34 21 67 4z
m-1514 -634 c-23 -44 -18 -102 15 -153 32 -52 75 -89 102 -89 10 0 20 -4 23
-9 7 -11 -69 -35 -89 -27 -9 3 -13 2 -10 -4 9 -15 46 -12 90 9 38 17 41 17 75
1 19 -10 46 -29 59 -43 l23 -26 -33 -20 c-19 -12 -29 -21 -24 -21 6 0 24 9 42
19 27 17 33 18 43 6 15 -18 4 -85 -14 -85 -22 0 -120 32 -159 52 -61 31 -114
85 -133 136 -10 26 -33 69 -51 95 -56 83 -62 140 -21 200 l20 27 28 -20 c27
-19 28 -22 14 -48z m1174 -829 c16 -38 33 -87 37 -110 8 -48 49 -92 131 -138
46 -26 50 -31 72 -100 12 -41 22 -82 22 -94 0 -39 -65 -36 -101 5 -9 11 -36
57 -59 104 -64 128 -131 239 -156 255 -24 15 -81 92 -86 115 -3 15 31 27 78
29 29 1 33 -4 62 -66z"/>
</g>
</svg>
